<svg width="103" height="64" viewBox="0 0 103 64" fill="none" xmlns="http://www.w3.org/2000/svg">
    <path d="M55 36C55.5523 36 56.0019 35.552 55.9822 35.0001C55.7722 29.123 53.7161 23.4514 50.0927 18.7979C46.2642 13.881 40.9049 10.3817 34.8634 8.85421C28.8219 7.32671 22.4434 7.85826 16.7381 10.3647C11.0327 12.8711 6.32654 17.2092 3.36473 22.692C0.402917 28.1748 -0.645242 34.4889 0.386225 40.6346C1.41769 46.7803 4.46983 52.4062 9.05935 56.6216C13.6489 60.837 19.5135 63.4009 25.7245 63.9074C31.6027 64.3867 37.4734 62.9971 42.5037 59.9508C42.9761 59.6648 43.1043 59.0432 42.8016 58.5813L38.1282 51.4515C37.8254 50.9896 37.2068 50.8634 36.7283 51.1392C33.6621 52.9071 30.1232 53.7062 26.5798 53.4173C22.7035 53.1012 19.0433 51.5011 16.1789 48.8702C13.3146 46.2393 11.4097 42.7281 10.7659 38.8925C10.1222 35.0569 10.7764 31.1162 12.6248 27.6943C14.4733 24.2724 17.4105 21.565 20.9713 20.0007C24.5321 18.4364 28.5129 18.1047 32.2835 19.058C36.0541 20.0113 39.3989 22.1953 41.7883 25.264C43.9724 28.069 45.2441 31.4669 45.4465 35.0005C45.4781 35.5519 45.9228 36 46.4751 36H55Z" fill="#A7A8EC"/>
    <path d="M39.594 45.718C39.594 41.92 42.528 39.13 46.488 39.13C50.466 39.13 53.418 41.776 53.418 45.718C53.418 48.04 52.374 49.912 50.682 51.064L53.418 51.802V54.34L45.084 52.144C41.862 51.568 39.594 48.994 39.594 45.718ZM46.164 49.84L46.2 49.858C46.29 49.858 46.398 49.858 46.488 49.858C49.134 49.858 50.898 48.148 50.898 45.718C50.898 43.234 49.134 41.542 46.488 41.542C43.932 41.542 42.114 43.234 42.114 45.718C42.114 48.04 43.77 49.714 46.164 49.84ZM61.0141 49.804C62.9761 49.804 64.3621 48.292 64.3621 46.096V39.4H66.8821V46.096C66.8821 49.57 64.5061 52.216 61.0141 52.216C57.5941 52.216 55.1461 49.57 55.1461 46.096V39.4H57.6661V46.096C57.6661 48.238 59.0881 49.804 61.0141 49.804ZM71.6759 43.594V52H69.1559V39.4H71.1719L79.0019 47.752V39.4H81.5219V52H79.4879L71.6759 43.594ZM86.3005 39.4V52H83.7805V39.4H86.3005ZM88.0217 45.718C88.0217 41.92 90.9557 39.13 94.9157 39.13C98.8937 39.13 101.846 41.776 101.846 45.718C101.846 48.04 100.802 49.912 99.1097 51.064L101.846 51.802V54.34L93.5117 52.144C90.2897 51.568 88.0217 48.994 88.0217 45.718ZM94.5917 49.84L94.6277 49.858C94.7177 49.858 94.8257 49.858 94.9157 49.858C97.5617 49.858 99.3257 48.148 99.3257 45.718C99.3257 43.234 97.5617 41.542 94.9157 41.542C92.3597 41.542 90.5417 43.234 90.5417 45.718C90.5417 48.04 92.1977 49.714 94.5917 49.84Z" fill="black"/>
    <circle cx="11" cy="5" r="5" fill="#3E72F6"/>
    <circle cx="3" cy="12" r="3" fill="#70A7F2"/>
</svg>
